<?xml version="1.0" encoding="UTF-8"?>
<svg xmlns="http://www.w3.org/2000/svg" version="1.1" viewBox="0 0 551 155">
  <defs>
    <style>
      .cls-1 {
        fill: #f58025;
      }
    </style>
  </defs>
  <!-- Generator: Adobe Illustrator 28.7.1, SVG Export Plug-In . SVG Version: 1.2.0 Build 142)  -->
  <g>
    <g id="Layer_1">
      <g>
        <path d="M125.4,32.8h-2.1v8.9h-4.4v-21.9h6.5c2.8,0,4.6,1.2,4.6,4.8v3.3c0,3.6-1.9,4.8-4.6,4.8ZM125.7,24.3c0-1-.3-1.3-1.3-1.3h-1.1v6.8h1.1c1,0,1.3-.3,1.3-1.4v-4.1Z"/>
        <path d="M132,41.7v-21.9h6c3.1,0,5,1,5,4.7v2.4c0,2-1.2,3.2-3.2,3.6h0c1.9.6,2.7,1.9,3.1,4.1,0,.6.1,1.4.2,2.2,0,2.4.3,4.1.7,4.7h0c0,.1-4.5.1-4.5.1-.3-.3-.5-1.4-.5-2.4v-5.2c0-1.8-.6-2.1-1.7-2.1h-.7v9.8h-4.4ZM138.8,27.6v-3.7c0-.9-.3-1.2-1.2-1.2h-1.1v6.3h1.1c.8,0,1.3-.3,1.3-1.5Z"/>
        <path d="M150.4,41.7h-4.4v-21.9h4.4v21.9Z"/>
        <path d="M160.2,41.7l-2.8-11.6c-.4-1.8-.7-3.4-.9-4.5h-.2c0,1.1,0,2.9,0,4.6v11.5h-3.3v-21.9h4.8l2.1,9.7c.3,1.7.7,3.7.9,4.9h.2c0-1.2,0-3,0-5v-9.6h3.3v21.9h-4.1Z"/>
        <path d="M171.3,37.3c0,1.1.5,1.5,1.4,1.5s1.3-.4,1.3-1.5v-4.7l3.9,1.1v3.1c0,3.4-1.9,5.2-5.4,5.2s-5.6-1.7-5.6-5.4v-11.6c0-3.7,2.4-5.4,5.6-5.4s5.4,1.8,5.4,5.2v2.5l-3.9,1.1v-4.1c0-1.1-.5-1.5-1.3-1.5s-1.4.4-1.4,1.5v13.1Z"/>
        <path d="M188.5,32.1h-3.8v6.3h4.8v3.3h-9.2v-21.9h9.1v3.3h-4.7v5.6h3.8v3.3Z"/>
        <path d="M198.4,41.7h-4.4v-18.6h-3.4v-3.3h11.2v3.3h-3.4v18.6Z"/>
        <path d="M214.7,36.6c0,3.9-2.7,5.4-5.8,5.4s-5.8-1.5-5.8-5.4v-11.8c0-3.8,2.7-5.3,5.8-5.3s5.8,1.5,5.8,5.3v11.8ZM209,22.7c-.8,0-1.4.4-1.4,1.5v13.1c0,1.1.5,1.5,1.4,1.5s1.4-.4,1.4-1.5v-13.1c0-1.1-.5-1.5-1.4-1.5Z"/>
        <path d="M224.4,41.7l-2.8-11.6c-.4-1.8-.7-3.4-.9-4.5h-.2c0,1.1,0,2.9,0,4.6v11.5h-3.3v-21.9h4.8l2.1,9.7c.3,1.7.7,3.7.9,4.9h.2c0-1.2,0-3,0-5v-9.6h3.3v21.9h-4.1Z"/>
      </g>
      <g>
        <g>
          <g>
            <path d="M76,50.8c2.6-12.1,1.3-20.9,1.3-20.9-20.1,5.4-29.4-11-29.4-11,0,0-9.3,16.5-29.4,11,0,0-1.3,8.7,1.3,20.9h56.2Z"/>
            <g>
              <path d="M47.9,51.9l-20.2,19.6c1.8,3.2,4,6.4,6.5,9.6l13.7-13.5,13.7,13.5c2.6-3.2,4.7-6.4,6.5-9.6l-20.2-19.6Z"/>
              <path d="M47.9,51.9l-20.2,19.6c1.8,3.2,4,6.4,6.5,9.6l13.7-13.5,13.7,13.5c2.6-3.2,4.7-6.4,6.5-9.6l-20.2-19.6Z"/>
            </g>
          </g>
          <path d="M47.9,21.6c.9,1.2,2.3,2.9,4.3,4.5,6.2,5.3,12.8,6.4,17.2,6.4s4.4-.2,6.6-.7c.2,3,.5,10-1.4,18.7-1.5,7.1-4.1,13.9-7.7,20.2-1.9,3.3-4,6.5-6.4,9.4-3.6,4.5-7.8,8.7-12.5,12.5-4.7-3.8-8.9-8-12.5-12.5-2.4-3-4.5-6.2-6.4-9.4-3.6-6.3-6.2-13.1-7.7-20.2-1.3-6.1-1.6-11.3-1.6-14.6,0-1.7,0-3.1.2-4.1,2.2.5,4.5.7,6.6.7,8,0,13.8-3.5,17.2-6.4,1.9-1.7,3.4-3.3,4.3-4.5M47.9,18.9s-6.8,12.1-21.5,12.1-5-.3-7.9-1.1c0,0-1.3,8.7,1.3,20.9,1.3,6.2,3.7,13.3,7.9,20.6,1.8,3.2,4,6.4,6.5,9.6,3.7,4.6,8.2,9.2,13.7,13.5,5.5-4.3,10-8.9,13.7-13.5,2.6-3.2,4.7-6.4,6.5-9.6,4.1-7.3,6.5-14.4,7.9-20.6,2.6-12.1,1.3-20.9,1.3-20.9-2.8.8-5.5,1.1-7.9,1.1-14.7,0-21.5-12.1-21.5-12.1h0Z"/>
        </g>
        <rect x="97.5" y="18.9" width="1.5" height="117.5"/>
      </g>
      <g>
        <path class="cls-1" d="M132.3,73.1h-6.1v10.2h7.8v5.3h-14.8v-35.2h14.6v5.3h-7.5v9.1h6.1v5.3Z"/>
        <path class="cls-1" d="M144.3,83.2h7.8v5.3h-14.7v-35.2h6.8v29.8Z"/>
        <path class="cls-1" d="M168,73.1h-6.1v10.2h7.8v5.3h-14.8v-35.2h14.6v5.3h-7.5v9.1h6.1v5.3Z"/>
        <path class="cls-1" d="M179.6,81.5c0,1.8.9,2.4,2.2,2.4s2.1-.6,2.1-2.4v-7.5l6.2,1.7v5c0,5.5-3,8.4-8.6,8.4s-8.9-2.7-8.9-8.7v-18.7c0-5.9,3.9-8.7,8.9-8.7s8.6,2.9,8.6,8.4v4l-6.2,1.7v-6.6c0-1.8-.7-2.4-2.1-2.4s-2.2.6-2.2,2.4v21.1Z"/>
        <path class="cls-1" d="M204.6,88.6h-7v-29.8h-5.5v-5.3h18v5.3h-5.5v29.8Z"/>
        <path class="cls-1" d="M212.8,88.6v-35.2h9.7c5,0,8.1,1.6,8.1,7.6v3.9c0,3.2-2,5.1-5.2,5.8v.2c3,.8,4.4,2.9,4.9,6.4.1,1,.2,2.2.3,3.5.1,3.9.5,6.5,1.2,7.5v.2h-7.3c-.5-.5-.8-2.3-.8-3.9v-8.4c0-2.9-1-3.4-2.7-3.4h-1.1v15.7h-7ZM223.7,65.9v-6c0-1.4-.5-1.9-2-1.9h-1.8v10.2h1.7c1.2,0,2.1-.4,2.1-2.4Z"/>
        <path class="cls-1" d="M242.4,88.6h-7v-35.2h7v35.2Z"/>
        <path class="cls-1" d="M253.5,81.5c0,1.8.9,2.4,2.2,2.4s2.1-.6,2.1-2.4v-7.5l6.2,1.7v5c0,5.5-3,8.4-8.6,8.4s-8.9-2.7-8.9-8.7v-18.7c0-5.9,3.9-8.7,8.9-8.7s8.6,2.9,8.6,8.4v4l-6.2,1.7v-6.6c0-1.8-.7-2.4-2.1-2.4s-2.2.6-2.2,2.4v21.1Z"/>
        <path class="cls-1" d="M285.8,88.6h-7l-.9-7.5h-4.4l-.9,7.5h-6.4l5.9-35.2h7.9l5.9,35.2ZM274,76.3h3.3l-.9-7.3c-.3-2.1-.5-5.1-.6-6.5h-.3c-.1,1.4-.4,4.4-.6,6.5l-.9,7.3Z"/>
        <path class="cls-1" d="M295.7,83.2h7.8v5.3h-14.7v-35.2h6.8v29.8Z"/>
        <path class="cls-1" d="M324.1,88.6h-4.6l-.6-4.9h-2.9l-.6,4.9h-4.2l3.8-22.9h5.1l3.8,22.9ZM316.4,80.6h2.2l-.6-4.8c-.2-1.4-.3-3.3-.4-4.2h-.2c0,.9-.2,2.9-.4,4.2l-.6,4.8Z"/>
        <path class="cls-1" d="M333.5,88.6l-2.9-12.1c-.4-1.8-.8-3.5-1-4.7h-.2c0,1.2,0,3,0,4.8v12h-3.5v-22.9h5l2.2,10.2c.4,1.8.8,3.8,1,5.1h.2c0-1.3,0-3.2,0-5.3v-10h3.5v22.9h-4.3Z"/>
        <path class="cls-1" d="M352.2,71.3v11.7c0,3.6-1.6,5.5-5.4,5.5h-6.1v-22.9h6.1c3.8,0,5.4,2,5.4,5.6ZM345.2,68.9v16.5h.8c.9,0,1.5-.3,1.5-1.5v-13.4c0-1.2-.7-1.6-1.5-1.6h-.8Z"/>
        <path class="cls-1" d="M368.8,81.5c0,1.8.9,2.4,2.2,2.4s2.1-.6,2.1-2.4v-7.5l6.2,1.7v5c0,5.5-3,8.4-8.6,8.4s-8.9-2.7-8.9-8.7v-18.7c0-5.9,3.9-8.7,8.9-8.7s8.6,2.9,8.6,8.4v4l-6.2,1.7v-6.6c0-1.8-.7-2.4-2.1-2.4s-2.2.6-2.2,2.4v21.1Z"/>
        <path class="cls-1" d="M401.5,80.4c0,6.2-4.3,8.6-9.3,8.6s-9.3-2.4-9.3-8.6v-18.9c0-6.2,4.3-8.6,9.3-8.6s9.3,2.4,9.3,8.6v18.9ZM392.3,58.1c-1.3,0-2.2.6-2.2,2.4v21.1c0,1.8.9,2.4,2.2,2.4s2.2-.6,2.2-2.4v-21.1c0-1.8-.9-2.4-2.2-2.4Z"/>
        <path class="cls-1" d="M424.1,88.6v-20.4c0-2.3,0-5.4.1-7h-.3c-.2,1.5-.4,3.6-.6,6.3l-2.4,21.1h-6.5l-2.4-21.1c-.3-2.8-.5-4.9-.6-6.3h-.3c0,1.6.1,4.7.1,7v20.4h-5.4v-35.2h9.8l1.8,15.6c.3,2.9.6,5.8.7,7.9h.2c.2-2,.4-5,.7-7.9l1.8-15.6h9.6v35.2h-6.4Z"/>
        <path class="cls-1" d="M445.2,74.3h-3.4v14.3h-7v-35.2h10.4c4.5,0,7.4,2,7.4,7.7v5.4c0,5.8-3,7.8-7.4,7.8ZM445.7,60.6c0-1.7-.6-2.1-2.1-2.1h-1.8v10.9h1.8c1.5,0,2.1-.5,2.1-2.2v-6.6Z"/>
        <path class="cls-1" d="M464.9,89c-5.6,0-9.2-2.8-9.2-8.7v-26.9h7v27.8c0,1.8.8,2.4,2.1,2.4s2.2-.6,2.2-2.4v-27.8h7v26.9c0,6-3.6,8.7-9.2,8.7Z"/>
        <path class="cls-1" d="M489.2,88.6h-7v-29.8h-5.5v-5.3h18v5.3h-5.5v29.8Z"/>
        <path class="cls-1" d="M510.7,73.1h-6.1v10.2h7.8v5.3h-14.8v-35.2h14.6v5.3h-7.5v9.1h6.1v5.3Z"/>
        <path class="cls-1" d="M515.7,88.6v-35.2h9.7c5,0,8.1,1.6,8.1,7.6v3.9c0,3.2-2,5.1-5.2,5.8v.2c3,.8,4.4,2.9,4.9,6.4.1,1,.2,2.2.3,3.5.1,3.9.5,6.5,1.2,7.5v.2h-7.3c-.5-.5-.8-2.3-.8-3.9v-8.4c0-2.9-1-3.4-2.7-3.4h-1.1v15.7h-7ZM526.5,65.9v-6c0-1.4-.5-1.9-2-1.9h-1.8v10.2h1.7c1.2,0,2.1-.4,2.1-2.4Z"/>
        <path class="cls-1" d="M132.3,119.4h-6.1v10.2h7.8v5.3h-14.8v-35.2h14.6v5.3h-7.5v9.1h6.1v5.3Z"/>
        <path class="cls-1" d="M148.8,134.8l-4.4-18.6c-.6-2.8-1.2-5.4-1.5-7.2h-.3c0,1.8.1,4.6.1,7.4v18.5h-5.3v-35.2h7.7l3.4,15.6c.6,2.7,1.2,5.9,1.5,7.8h.3c0-1.9-.1-4.9-.1-8.1v-15.4h5.4v35.2h-6.7Z"/>
        <path class="cls-1" d="M176.9,111.1l-6,1.7v-6.1c0-1.8-.6-2.4-2-2.4s-2.3.6-2.3,2.4v21.1c0,1.8,1,2.5,2.5,2.5s2.4-.9,2.4-2.9v-6.1h-2.5v-4.5h8.2v18h-3.4l-.9-2.7h-.2c-1.2,2.4-2.6,3.2-5.7,3.2-4.6,0-7.4-2.8-7.4-8.7v-18.7c0-5.9,3.9-8.7,8.9-8.7s8.4,2.9,8.4,8.4v3.6Z"/>
        <path class="cls-1" d="M188.4,134.8h-7v-35.2h7v35.2Z"/>
        <path class="cls-1" d="M204.1,134.8l-4.4-18.6c-.6-2.8-1.2-5.4-1.5-7.2h-.3c0,1.8.1,4.6.1,7.4v18.5h-5.3v-35.2h7.7l3.4,15.6c.6,2.7,1.2,5.9,1.5,7.8h.3c0-1.9-.1-4.9-.1-8.1v-15.4h5.4v35.2h-6.7Z"/>
        <path class="cls-1" d="M228.3,119.4h-6.1v10.2h7.8v5.3h-14.8v-35.2h14.6v5.3h-7.5v9.1h6.1v5.3Z"/>
        <path class="cls-1" d="M246.6,119.4h-6.1v10.2h7.8v5.3h-14.8v-35.2h14.6v5.3h-7.5v9.1h6.1v5.3Z"/>
        <path class="cls-1" d="M251.6,134.8v-35.2h9.7c5,0,8.1,1.6,8.1,7.6v3.9c0,3.2-2,5.1-5.2,5.8v.2c3,.8,4.4,2.9,4.9,6.4.1,1,.2,2.2.3,3.5.1,3.9.5,6.5,1.2,7.5v.2h-7.3c-.5-.5-.8-2.3-.8-3.9v-8.4c0-2.9-1-3.4-2.7-3.4h-1.1v15.7h-7ZM262.4,112.2v-6c0-1.4-.5-1.9-2-1.9h-1.8v10.2h1.7c1.2,0,2.1-.4,2.1-2.4Z"/>
        <path class="cls-1" d="M281.1,134.8h-7v-35.2h7v35.2Z"/>
        <path class="cls-1" d="M296.9,134.8l-4.4-18.6c-.6-2.8-1.2-5.4-1.5-7.2h-.3c0,1.8.1,4.6.1,7.4v18.5h-5.3v-35.2h7.7l3.4,15.6c.6,2.7,1.2,5.9,1.5,7.8h.3c0-1.9-.1-4.9-.1-8.1v-15.4h5.4v35.2h-6.7Z"/>
        <path class="cls-1" d="M324.9,111.1l-6,1.7v-6.1c0-1.8-.6-2.4-2-2.4s-2.3.6-2.3,2.4v21.1c0,1.8,1,2.5,2.5,2.5s2.4-.9,2.4-2.9v-6.1h-2.5v-4.5h8.2v18h-3.4l-.9-2.7h-.2c-1.2,2.4-2.6,3.2-5.7,3.2-4.6,0-7.4-2.8-7.4-8.7v-18.7c0-5.9,3.9-8.7,8.9-8.7s8.4,2.9,8.4,8.4v3.6Z"/>
      </g>
    </g>
  </g>
</svg>